# Alias OBJ Model File
# Exported from SketchUp, (c) 2000-2012 Trimble Navigation Limited
# File units = meters

v 1 0.5 -0.707107
vt -39.3701 27.8389
vn 0 -1 -0
v 1 0.5 -0.293146
vt -39.3701 11.5412
v 0.999821 0.5 -0.707286
vt -39.363 27.8459
f 1/1/1 2/2/1 3/3/1

v 0.749892 0.75 -0.603531
vt 23.7611 -0.00601172
vn 0.706954 0.707259 -6.08815e-017
v 0.749892 0.75 -0.396551
vt 15.6122 -0.00601172
vt 11.5412 -13.9284
vt 27.8389 -13.9284
f 4/4/2 5/5/2 2/6/2 1/7/2 

v 0.603319 0.75 -0.749978
vt 23.7527 29.5267
vn 0 1 -0
v 0.396249 0.75 -0.749888
vt 15.6004 29.5232
v 0.249892 0.75 -0.603404
vt 9.83827 23.7561
v 0.249981 0.75 -0.396335
vt 9.84179 15.6037
v 0.396465 0.75 -0.249978
vt 15.6089 9.84164
v 0.603535 0.75 -0.250067
vt 23.7612 9.84516
vt 29.5233 15.6122
vt 29.5233 23.7611
f 6/8/3 7/9/3 8/10/3 9/11/3 10/12/3 11/13/3 5/14/3 4/15/3 

vt -15.6131 0.00975324
vn -0.000305596 0.707075 -0.707138
vt -23.7655 0.00975324
v 0.706854 0.5 -1
vt -27.8459 -13.909
v 0.292714 0.5 -0.999821
vt -11.5412 -13.909
f 7/16/4 6/17/4 12/18/4 13/19/4 

vt 8.14032 -19.6871
vn 0.499736 0.707174 -0.500169
vt 4.06653 -5.76631
vt -4.0908 -5.76631
vt -8.17434 -19.6871
vt -8.16438 -19.6871
f 12/20/5 6/21/5 4/22/5 1/23/5 3/24/5 

v 0.5 0 -0.5
vt -0.0120308 19.6833
vn 0.499829 -0.707044 -0.500261
vt 8.14032 47.5196
vt -8.16438 47.5196
f 14/25/6 12/26/6 3/27/6

vt -27.8459 41.7485
vn -0.000305609 -0.707044 -0.70717
vt -19.6935 13.9122
vt -11.5412 41.7485
f 12/28/7 14/29/7 13/30/7

vt -35.9912 27.8279
vn -0.500261 -0.707044 -0.499829
vt -27.8388 -0.00850629
v 0 0.5 -0.706854
vt -19.6865 27.8279
f 13/31/8 14/32/8 15/33/8

vt -19.6765 -13.9242
vn -0.70717 -0.707044 0.000305609
v 0.000178974 0.5 -0.292714
vt -11.5242 13.9122
vt -27.8289 13.9122
f 14/34/9 16/35/9 15/36/9

vt 0.0120308 -19.6833
vn -0.499829 -0.707044 0.500261
v 0.293146 0.5 -0
vt 8.16438 8.15308
vt -8.14032 8.15308
f 14/37/10 17/38/10 16/39/10

vt 11.5412 13.9242
vn 0.000305609 -0.707044 0.70717
vt 19.6935 -13.9122
v 0.707286 0.5 -0.000178974
vt 27.8459 13.9242
f 17/40/11 14/41/11 18/42/11

vt 27.8388 0.00850629
vn 0.500261 -0.707044 0.499829
vt 35.9912 27.8449
vt 19.6865 27.8449
f 14/43/12 2/44/12 18/45/12

vt 19.6765 13.9242
vn 0.70717 -0.707044 -0.000305609
vt 27.8289 41.7606
vt 11.5242 41.7606
f 14/46/13 3/47/13 2/48/13

vt 35.9912 -0.0069016
vn 0.5002 0.707129 0.499768
vt 31.9114 13.913
vt 23.759 13.913
vt 19.6865 -0.0069016
f 2/49/14 5/50/14 11/51/14 18/52/14 

vt 23.7655 27.8353
vn 0.000305623 0.707012 0.707202
vt 15.6131 27.8353
vt 11.5412 13.9178
vt 27.8459 13.9178
f 11/53/15 10/54/15 17/55/15 18/56/15 

vt 8.16438 19.6898
vn -0.499921 0.706913 0.500353
vt 4.08582 33.6054
vt -4.06653 33.6054
vt -8.14032 19.6898
f 17/57/16 10/58/16 9/59/16 16/60/16 

vt -15.5995 27.8474
vn -0.707323 0.706891 0.000305675
vt -23.7518 27.8474
vt -27.8289 13.9322
vt -11.5242 13.9322
f 9/61/17 8/62/17 15/63/17 16/64/17 

vt -19.6865 0.01686
vn -0.500321 0.706958 -0.499889
vt -23.759 13.9334
vt -31.9114 13.9334
vt -35.9912 0.01686
f 15/65/18 8/66/18 7/67/18 13/68/18 

